<?xml version="1.0" encoding="UTF-8"?>
<svg width="25px" height="25px" viewBox="0 0 25 25" xmlns="http://www.w3.org/2000/svg" xmlns:xlink="http://www.w3.org/1999/xlink" version="1.1">
 <!-- Generated by Pixelmator Pro 2.0.8 -->
 <path id="Path" d="M22.768 10.268 L15.179 10.268 C14.932 10.268 14.732 10.068 14.732 9.821 L14.732 2.232 C14.732 0.999 13.733 0 12.5 0 11.268 0 10.268 0.999 10.268 2.232 L10.268 9.821 C10.268 10.068 10.068 10.268 9.821 10.268 L2.232 10.268 C0.999 10.268 0 11.267 0 12.5 0 13.733 0.999 14.732 2.232 14.732 L9.821 14.732 C10.068 14.732 10.268 14.932 10.268 15.179 L10.268 22.768 C10.268 24.001 11.268 25 12.5 25 13.733 25 14.732 24.001 14.732 22.768 L14.732 15.179 C14.732 14.932 14.932 14.732 15.179 14.732 L22.768 14.732 C24.001 14.732 25 13.733 25 12.5 25 11.267 24.001 10.268 22.768 10.268 Z M22.768 10.268" fill="#ff5959" fill-opacity="1" stroke="none"/>
</svg>
