<?xml version="1.0" encoding="UTF-8"?>
<svg width="40px" height="40px" viewBox="0 0 40 40" xmlns="http://www.w3.org/2000/svg" xmlns:xlink="http://www.w3.org/1999/xlink" version="1.1">
 <!-- Generated by Pixelmator Pro 2.0.8 -->
 <path id="Path" d="M36.429 16.429 L24.286 16.429 C23.891 16.429 23.571 16.109 23.571 15.714 L23.571 3.571 C23.571 1.599 21.972 0 20 0 18.028 0 16.429 1.599 16.429 3.571 L16.429 15.714 C16.429 16.109 16.109 16.429 15.714 16.429 L3.571 16.429 C1.599 16.429 -0 18.028 -0 20 -0 21.972 1.599 23.571 3.571 23.571 L15.714 23.571 C16.109 23.571 16.429 23.891 16.429 24.286 L16.429 36.429 C16.429 38.401 18.028 40 20 40 21.972 40 23.571 38.401 23.571 36.429 L23.571 24.286 C23.571 23.891 23.891 23.571 24.286 23.571 L36.429 23.571 C38.401 23.571 40 21.972 40 20 40 18.028 38.401 16.429 36.429 16.429 Z M36.429 16.429" fill="#ff5959" fill-opacity="1" stroke="none"/>
</svg>
