<?xml version="1.0" encoding="UTF-8"?>
<svg width="80px" height="80px" viewBox="0 0 80 80" xmlns="http://www.w3.org/2000/svg" xmlns:xlink="http://www.w3.org/1999/xlink" version="1.1">
 <!-- Generated by Pixelmator Pro 2.0.8 -->
 <path id="Path" d="M72.857 32.857 L48.571 32.857 C47.783 32.857 47.143 32.217 47.143 31.429 L47.143 7.143 C47.143 3.198 43.945 0 40 0 36.055 0 32.857 3.198 32.857 7.143 L32.857 31.429 C32.857 32.217 32.217 32.857 31.429 32.857 L7.143 32.857 C3.198 32.857 0 36.055 0 40 0 43.945 3.198 47.143 7.143 47.143 L31.429 47.143 C32.217 47.143 32.857 47.783 32.857 48.571 L32.857 72.857 C32.857 76.802 36.055 80 40 80 43.945 80 47.143 76.802 47.143 72.857 L47.143 48.571 C47.143 47.783 47.783 47.143 48.571 47.143 L72.857 47.143 C76.802 47.143 80 43.945 80 40 80 36.055 76.802 32.857 72.857 32.857 Z M72.857 32.857" fill="#ff5959" fill-opacity="1" stroke="none"/>
</svg>
