<svg id="Capa_1" enable-background="new 0 0 512 512" height="512" viewBox="0 0 512 512" width="512" xmlns="http://www.w3.org/2000/svg"><g><path d="m427.781 276h-205.562c-5.443-10.151-10.458-13.099-13.106-17.854s-2.511-10.572.356-15.198l102.781-165.849c2.735-4.414 7.558-7.099 12.75-7.099s10.015 2.685 12.75 7.099l102.781 165.849c2.867 4.626 3.003 10.442.356 15.198s-7.663 7.703-13.106 17.854z" fill="#af8663"/><path d="m440.531 242.948-102.781-165.849c-2.735-4.414-7.558-7.099-12.75-7.099v206h102.781c5.443-10.151 10.458-13.099 13.106-17.854s2.511-10.572-.356-15.198z" fill="#896645"/><path d="m354.12 291.69-176.37-284.591c-2.735-4.414-7.558-7.099-12.75-7.099s-10.015 2.685-12.75 7.099l-150 242.041 57.75 65.452h280.945c4.616 0 9.113-1.913 12.03-5.491 4.121-5.058 4.475-12.037 1.145-17.411z" fill="#896645"/><path d="m354.12 291.69-176.37-284.591c-2.735-4.414-7.558-7.099-12.75-7.099v314.592h175.945c4.616 0 9.113-1.913 12.03-5.491 4.121-5.058 4.475-12.037 1.145-17.411z" fill="#73543b"/><path d="m497 242.042c-14.11 0-28.114 2.871-41.08 8.369-13.593-11.812-31.013-18.411-49.295-18.411-18.869 0-36.915 7.018-50.813 19.761-9.377 8.597-16.332 19.297-20.37 31.103-3.023-.436-6.076-.655-9.15-.655-20.266 0-38.768 9.214-50.895 24.5-5.971-2.879-12.568-4.416-19.397-4.416s-13.426 1.537-19.397 4.416c-12.127-15.286-30.629-24.5-50.895-24.5-3.074 0-6.127.219-9.15.655-4.038-11.806-10.993-22.505-20.37-31.103-13.898-12.743-31.944-19.761-50.813-19.761-18.282 0-35.702 6.599-49.295 18.411-12.966-5.498-26.97-8.369-41.08-8.369-8.284 0-15 6.716-15 15v104l256 80.958 256-80.958v-104c0-8.284-6.716-15-15-15z" fill="#00cb75"/><path d="m497 242.042c-14.11 0-28.114 2.871-41.08 8.369-13.593-11.812-31.013-18.411-49.295-18.411-18.869 0-36.915 7.018-50.813 19.761-9.377 8.597-16.332 19.297-20.37 31.103-3.023-.436-6.076-.655-9.15-.655-20.266 0-38.768 9.214-50.895 24.5-5.971-2.879-12.568-4.416-19.397-4.416v139.707l256-80.958v-104c0-8.284-6.716-15-15-15z" fill="#00a763"/><path d="m497 512h-482c-8.284 0-15-6.716-15-15v-135.958h15c14.11 0 28.114 2.871 41.08 8.369 13.593-11.812 31.013-18.411 49.295-18.411 18.869 0 36.915 7.018 50.813 19.761 9.377 8.597 16.332 19.297 20.37 31.103 3.023-.436 6.076-.655 9.15-.655 20.266 0 38.768 9.214 50.895 24.5 5.971-2.879 12.568-4.416 19.397-4.416s13.426 1.537 19.397 4.416c12.127-15.286 30.629-24.5 50.895-24.5 3.074 0 6.127.219 9.15.655 4.038-11.806 10.993-22.505 20.37-31.103 13.898-12.743 31.944-19.761 50.813-19.761 18.282 0 35.702 6.599 49.295 18.411 12.966-5.498 26.97-8.369 41.08-8.369h15v135.958c0 8.284-6.716 15-15 15z" fill="#00a763"/><path d="m455.92 369.411c-13.593-11.812-31.013-18.411-49.295-18.411-18.869 0-36.915 7.018-50.813 19.761-9.377 8.597-16.332 19.297-20.37 31.103-3.023-.436-6.076-.655-9.15-.655-20.266 0-38.768 9.214-50.895 24.5-5.971-2.879-12.568-4.416-19.397-4.416v90.707h241c8.284 0 15-6.716 15-15v-135.958h-15c-14.11 0-28.114 2.871-41.08 8.369z" fill="#007845"/><path d="m452 120c-33.084 0-60-26.916-60-60s26.916-60 60-60 60 26.916 60 60-26.916 60-60 60z" fill="#ffdd54"/><path d="m452 0v120c33.084 0 60-26.916 60-60s-26.916-60-60-60z" fill="#ff9d21"/></g></svg>